<svg width="139" height="139" viewBox="0 0 139 139" fill="none" xmlns="http://www.w3.org/2000/svg">
<path d="M45.0826 2.11645C45.9452 2.65856 47.1951 3.45128 48.751 4.45783C51.881 6.48278 56.2479 9.37144 61.1886 12.8253C71.0849 19.7435 83.2283 28.8885 92.3709 37.8741C101.511 46.8571 112.679 61.144 121.598 73.2454C126.049 79.2841 129.925 84.7579 132.687 88.7217C134.068 90.7033 135.171 92.3072 135.928 93.415C136.009 93.5344 136.086 93.6488 136.16 93.7565L55.9086 136.542C55.504 135.953 54.9503 135.15 54.2715 134.18C52.7696 132.034 50.6596 129.065 48.2263 125.771C43.3745 119.204 37.184 111.274 31.9541 106.031C26.7308 100.793 18.9367 94.5583 12.4947 89.6621C9.26476 87.2073 6.35824 85.0762 4.25887 83.5589C3.31083 82.8737 2.52601 82.3145 1.95101 81.9057L45.0826 2.11645Z" stroke="black" stroke-width="3"/>
</svg>
